<svg xmlns="http://www.w3.org/2000/svg" version="1.0" viewBox="0 0 500 500"><path fill-opacity=".1" d="M176.9 31.7c-1.3 1.6-1.2 1.7.4.4.9-.7 1.7-1.5 1.7-1.7 0-.8-.8-.3-2.1 1.3M119 244.4c0 .2.8 1 1.8 1.7 1.5 1.3 1.6 1.2.3-.4s-2.1-2.1-2.1-1.3m259.9 1.3c-1.3 1.6-1.2 1.7.4.4s2.1-2.1 1.3-2.1c-.2 0-1 .8-1.7 1.7m-41 100c-1.3 1.6-1.2 1.7.4.4.9-.7 1.7-1.5 1.7-1.7 0-.8-.8-.3-2.1 1.3m-91.6 37c2 .2 5.4.2 7.5 0 2-.2.3-.4-3.8-.4s-5.8.2-3.7.4"/><path fill-opacity=".2" d="m180.9 27.7-2.4 2.8 2.8-2.4c2.5-2.3 3.2-3.1 2.4-3.1-.2 0-1.4 1.2-2.8 2.7M319.5 29c1 1.1 2 2 2.3 2s-.3-.9-1.3-2-2-2-2.3-2 .3.9 1.3 2m54.6 228.6c0 1.1.3 1.4.6.6.3-.7.2-1.6-.1-1.9-.3-.4-.6.2-.5 1.3M177.5 325c1 1.1 2 2 2.3 2s-.3-.9-1.3-2-2-2-2.3-2 .3.9 1.3 2m3.5 3.4c0 .2.8 1 1.8 1.7 1.5 1.3 1.6 1.2.3-.4s-2.1-2.1-2.1-1.3M158.5 343c1 1.1 2 2 2.3 2s-.3-.9-1.3-2-2-2-2.3-2 .3.9 1.3 2m182.4-.3c-1.3 1.6-1.2 1.7.4.4.9-.7 1.7-1.5 1.7-1.7 0-.8-.8-.3-2.1 1.3M163 347.4c0 .2.8 1 1.8 1.7 1.5 1.3 1.6 1.2.3-.4s-2.1-2.1-2.1-1.3m171.9 1.3c-1.3 1.6-1.2 1.7.4.4s2.1-2.1 1.3-2.1c-.2 0-1 .8-1.7 1.7m-93.1 8c.7.3 1.6.2 1.9-.1.4-.3-.2-.6-1.3-.5-1.1 0-1.4.3-.6.6m16 0c.7.3 1.6.2 1.9-.1.4-.3-.2-.6-1.3-.5-1.1 0-1.4.3-.6.6M131 366.4c0 .2.8 1 1.8 1.7 1.5 1.3 1.6 1.2.3-.4s-2.1-2.1-2.1-1.3m235.9 1.3c-1.3 1.6-1.2 1.7.4.4s2.1-2.1 1.3-2.1c-.2 0-1 .8-1.7 1.7m-183.6 97c9.3.2 24.1.2 33 0 8.9-.1 1.4-.3-16.8-.3-18.1 0-25.4.2-16.2.3m101 0c9.3.2 24.1.2 33 0 8.9-.1 1.4-.3-16.8-.3-18.1 0-25.4.2-16.2.3"/><path fill-opacity=".3" d="M348.5 178c0 44.8.1 63.2.2 40.8.2-22.5.2-59.1 0-81.5-.1-22.5-.2-4.1-.2 40.7m-223.3 82c0 1.4.2 1.9.5 1.2.2-.6.2-1.8 0-2.5-.3-.6-.5-.1-.5 1.3m248.9.6c0 1.1.3 1.4.6.6.3-.7.2-1.6-.1-1.9-.3-.4-.6.2-.5 1.3m-129.3 96.1c.6.2 1.8.2 2.5 0 .6-.3.1-.5-1.3-.5s-1.9.2-1.2.5m10 0c.7.3 1.6.2 1.9-.1.4-.3-.2-.6-1.3-.5-1.1 0-1.4.3-.6.6M137.5 373c2.1 2.2 4.1 4 4.4 4s-1.3-1.8-3.4-4-4.1-4-4.4-4 1.3 1.8 3.4 4m224 .2-4 4.3 4.3-4c3.9-3.6 4.7-4.5 3.9-4.5-.2 0-2.1 1.9-4.2 4.2"/><path fill-opacity=".4" d="M390.8 240.7c.6.2 1.8.2 2.5 0 .6-.3.1-.5-1.3-.5s-1.9.2-1.2.5m-265.7 22.9c0 1.1.3 1.4.6.6.3-.7.2-1.6-.1-1.9-.3-.4-.6.2-.5 1.3m249 0c0 1.1.3 1.4.6.6.3-.7.2-1.6-.1-1.9-.3-.4-.6.2-.5 1.3m-55.7 64.6-2.9 3.3 3.3-2.9c3-2.8 3.7-3.6 2.9-3.6-.2 0-1.6 1.5-3.3 3.2m-69.1 28.5c.9.2 2.5.2 3.5 0 .9-.3.1-.5-1.8-.5s-2.7.2-1.7.5M150.2 482c0 1.4.2 1.9.5 1.2.2-.6.2-1.8 0-2.5-.3-.6-.5-.1-.5 1.3m199 0c0 1.4.2 1.9.5 1.2.2-.6.2-1.8 0-2.5-.3-.6-.5-.1-.5 1.3"/><path fill-opacity=".6" d="M232.4 441c0 12.9.2 18.2.3 11.7.2-6.4.2-17 0-23.5-.1-6.4-.3-1.1-.3 11.8m35 0c0 12.9.2 18.2.3 11.7.2-6.4.2-17 0-23.5-.1-6.4-.3-1.1-.3 11.8"/><path fill-opacity=".7" d="m179.9 29.7-3.4 3.8 3.8-3.4c3.4-3.3 4.2-4.1 3.4-4.1-.2 0-1.9 1.7-3.8 3.7m139.1-.2c1.9 1.9 3.6 3.5 3.9 3.5s-1-1.6-2.9-3.5-3.6-3.5-3.9-3.5 1 1.6 2.9 3.5M152.2 91c0 1.4.2 1.9.5 1.2.2-.6.2-1.8 0-2.5-.3-.6-.5-.1-.5 1.3m195 0c0 1.4.2 1.9.5 1.2.2-.6.2-1.8 0-2.5-.3-.6-.5-.1-.5 1.3m-257 173c0 1.4.2 1.9.5 1.2.2-.6.2-1.8 0-2.5-.3-.6-.5-.1-.5 1.3m319 0c0 1.4.2 1.9.5 1.2.2-.6.2-1.8 0-2.5-.3-.6-.5-.1-.5 1.3m-257 1c0 1.4.2 1.9.5 1.2.2-.6.2-1.8 0-2.5-.3-.6-.5-.1-.5 1.3m194.9.6c0 1.1.3 1.4.6.6.3-.7.2-1.6-.1-1.9-.3-.4-.6.2-.5 1.3m-9.2 81.1-3.4 3.8 3.8-3.4c2-1.9 3.7-3.6 3.7-3.8 0-.8-.8 0-4.1 3.4m-176.9-.2c1.3 1.4 2.6 2.5 2.8 2.5.3 0-.5-1.1-1.8-2.5s-2.6-2.5-2.8-2.5c-.3 0 .5 1.1 1.8 2.5"/><path fill-opacity=".8" d="M152.5 178c0 47 .1 66.3.2 42.8.2-23.6.2-62 0-85.5-.1-23.6-.2-4.3-.2 42.7m195 .5c0 47.3.1 66.5.2 42.7.2-23.9.2-62.6 0-86-.1-23.5-.2-4-.2 43.3m-243.7 63.2c.7.3 1.6.2 1.9-.1.4-.3-.2-.6-1.3-.5-1.1 0-1.4.3-.6.6m291 0c.7.3 1.6.2 1.9-.1.4-.3-.2-.6-1.3-.5-1.1 0-1.4.3-.6.6M90.2 259c0 1.9.2 2.7.5 1.7.2-.9.2-2.5 0-3.5-.3-.9-.5-.1-.5 1.8m319 .5c0 1.6.2 2.2.5 1.2.2-.9.2-2.3 0-3-.3-.6-.5.1-.5 1.8M178 324.3c0 .2 1.5 1.6 3.3 3.3l3.2 2.9-2.9-3.3c-2.8-3-3.6-3.7-3.6-2.9m-22 17.1c0 .2.8 1 1.8 1.7 1.5 1.3 1.6 1.2.3-.4s-2.1-2.1-2.1-1.3m8 8c0 .2.8 1 1.8 1.7 1.5 1.3 1.6 1.2.3-.4s-2.1-2.1-2.1-1.3m168.9 2.3c-1.3 1.6-1.2 1.7.4.4s2.1-2.1 1.3-2.1c-.2 0-1 .8-1.7 1.7m-90.1 4c.7.3 1.6.2 1.9-.1.4-.3-.2-.6-1.3-.5-1.1 0-1.4.3-.6.6m14 0c.7.3 1.6.2 1.9-.1.4-.3-.2-.6-1.3-.5-1.1 0-1.4.3-.6.6M132.5 367c1 1.1 2 2 2.3 2s-.3-.9-1.3-2-2-2-2.3-2 .3.9 1.3 2m233.9.2-1.9 2.3 2.3-1.9c2.1-1.8 2.7-2.6 1.9-2.6-.2 0-1.2 1-2.3 2.2M140 374.4c0 .2.8 1 1.8 1.7 1.5 1.3 1.6 1.2.3-.4s-2.1-2.1-2.1-1.3"/><g fill-opacity=".9" stroke-opacity=".9" stroke-width="0"><path d="M246 .8c0 .4 1.8.6 4 .4s4-.6 4-.8-1.8-.4-4-.4-4 .3-4 .8m-9.2.9c.7.3 1.6.2 1.9-.1.4-.3-.2-.6-1.3-.5-1.1 0-1.4.3-.6.6m25 0c.7.3 1.6.2 1.9-.1.4-.3-.2-.6-1.3-.5-1.1 0-1.4.3-.6.6m6.3.7c.3.4 3.9 1.6 7.9 2.7 4.1 1.1 10.7 3.5 14.7 5.4 8.3 3.8 9.9 3.8 2.4 0-6.8-3.4-26.8-9.9-25-8.1m-48.9 3.1c-7.4 2.6-17.2 7.1-17.2 8 0 .3 2.3-.6 5.1-2 2.8-1.5 9-3.9 13.7-5.5 4.8-1.6 8-2.9 7.2-2.9s-4.8 1.1-8.8 2.4m-22.5 11c-2 1.4-3.7 2.8-3.7 3.1 0 .2 1.8-.8 4-2.2 3.5-2.3 4.7-3.4 3.7-3.4-.1 0-1.9 1.1-4 2.5"/><path d="M299 14.2c.3.3 3.3 2.7 6.8 5.2 9.3 6.9 20.3 18.5 25.6 26.9 4.7 7.6 9.4 19 12.6 30.7 1 3.6 1.9 5.8 1.9 4.9.2-3-4.9-19-8.3-26.5-5.8-12.5-14.9-23.7-27-33.2-5.6-4.5-12.8-9.4-11.6-8m-109.6 8-1.9 2.3 2.3-1.9c2.1-1.8 2.7-2.6 1.9-2.6-.2 0-1.2 1-2.3 2.2m-10 9c-3.8 4-8 8.9-9.2 10.8-2.1 3.1-2 3.1.9-.5 1.9-2.2 6.3-7 9.8-10.8 3.5-3.7 6.2-6.7 5.9-6.7s-3.6 3.3-7.4 7.2m-16.6 23.3c-2.2 4.7-3.9 8.7-3.7 8.9s2.3-3.6 4.6-8.5 3.9-8.9 3.7-8.9c-.3 0-2.3 3.8-4.6 8.5m-6.7 18.1c0 1.1.3 1.4.6.6.3-.7.2-1.6-.1-1.9-.3-.4-.6.2-.5 1.3m-1 4c0 1.1.3 1.4.6.6.3-.7.2-1.6-.1-1.9-.3-.4-.6.2-.5 1.3m-1 4c0 1.1.3 1.4.6.6.3-.7.2-1.6-.1-1.9-.3-.4-.6.2-.5 1.3m-.8 7.9c0 2.2.2 3 .4 1.7.2-1.2.2-3 0-4-.3-.9-.5.1-.4 2.3m192.8-1.9c0 1.1.3 1.4.6.6.3-.7.2-1.6-.1-1.9-.3-.4-.6.2-.5 1.3M153.4 149c0 6.3.1 8.9.3 5.7.2-3.1.2-8.3 0-11.5-.2-3.1-.3-.5-.3 5.8m-46.6 92.7c.6.2 1.8.2 2.5 0 .6-.3.1-.5-1.3-.5s-1.9.2-1.2.5m284 0c.6.2 1.8.2 2.5 0 .6-.3.1-.5-1.3-.5s-1.9.2-1.2.5M98 244.2c-1.8 1.3-4 3.4-4.9 4.8-1.2 1.9-.8 1.7 1.6-.8 1.7-1.8 4.6-3.9 6.5-4.7 1.8-.8 2.6-1.4 1.7-1.5-.9 0-3.1 1-4.9 2.2m300.8-.7c1.9.8 4.8 2.9 6.5 4.7 2.4 2.5 2.8 2.7 1.6.8-1.9-3-7.6-7-9.8-7-.9.1-.1.7 1.7 1.5m-280.9 2.1c1.8 1.5 3.9 4.1 4.7 5.8.7 1.7 1.3 2.3 1.4 1.4 0-2-4.4-7.5-7.4-8.9-1.1-.6-.6.2 1.3 1.7m262 1.3c-2.2 2.1-3.9 4.5-3.9 5.2 0 .8.9 0 1.9-1.7s3.2-4 4.7-5.2c1.6-1.2 2.5-2.2 2-2.2-.4 0-2.6 1.7-4.7 3.9m28.3 7.6c0 1.6.2 2.2.5 1.2.2-.9.2-2.3 0-3-.3-.6-.5.1-.5 1.8m-32.9 5.5c0 3.6.2 5 .4 3.2.2-1.7.2-4.7 0-6.5-.2-1.7-.4-.3-.4 3.3m-251 .5c0 3.3.2 4.5.4 2.7s.2-4.5 0-6-.4 0-.4 3.3m28.9 7.5c0 1.9.2 2.7.5 1.7.2-.9.2-2.5 0-3.5-.3-.9-.5-.1-.5 1.8m193 .5c0 1.6.2 2.2.5 1.2.2-.9.2-2.3 0-3-.3-.6-.5.1-.5 1.8m-221.1 4.6c-.2 5.8 5.2 29 6.4 27.7.2-.2-.5-3.5-1.6-7.3-1.1-3.9-2.6-10.8-3.3-15.5-.9-5.1-1.4-7-1.5-4.9m248.6 2.9c-.4 3.6-1.6 9.9-2.7 14-2.2 8.7-1.9 10.7.5 2.5 2.3-8.1 3.7-16.1 3.3-19.8-.2-2.2-.6-1.1-1.1 3.3m-219.6-.4c0 1.1.3 1.4.6.6.3-.7.2-1.6-.1-1.9-.3-.4-.6.2-.5 1.3m191 0c0 1.1.3 1.4.6.6.3-.7.2-1.6-.1-1.9-.3-.4-.6.2-.5 1.3m-252.9 4.9c0 1.6.2 2.2.5 1.2.2-.9.2-2.3 0-3-.3-.6-.5.1-.5 1.8m65.9 9.9c-.1 1.2 8.6 19.6 9.3 19.6s-.4-2.7-5.3-12.5c-2.2-4.4-4-7.6-4-7.1m182.5 1.1c-.9 2.6-.7 3.2.5 1.2.6-1 .9-2.1.6-2.3-.2-.3-.7.2-1.1 1.1m63.5 4.1c0 1.1.3 1.4.6.6.3-.7.2-1.6-.1-1.9-.3-.4-.6.2-.5 1.3m-67.9 6c-1.8 3.5-3.2 6.8-3.2 7.2.1.4 1.7-2.4 3.6-6.2 1.9-3.7 3.4-7 3.2-7.2s-1.8 2.6-3.6 6.2m-239.1 2c0 1.1.3 1.4.6.6.3-.7.2-1.6-.1-1.9-.3-.4-.6.2-.5 1.3m305 0c0 1.1.3 1.4.6.6.3-.7.2-1.6-.1-1.9-.3-.4-.6.2-.5 1.3m-269 1.9c0 .5.6 2.1 1.4 3.5s1.4 2 1.4 1.5c0-.6-.6-2.1-1.4-3.5s-1.4-2.1-1.4-1.5m232.1 2c-1.7 3.7-1.4 4.5.4 1.2.9-1.6 1.4-3.1 1.1-3.3-.2-.2-.9.7-1.5 2.1m-224.9 13c.9 1.6 2.3 3.9 3.2 5s.7.2-.6-2c-2.7-4.9-4.7-7.2-2.6-3m218.6-.3c-.7 1.3-1.9 3.4-2.7 4.8-1.4 2.4-1.3 2.4.3.5 2-2.4 4.8-7.5 4.1-7.5-.3 0-1.1 1-1.7 2.2m-183.4.8c1 1.1 2 2 2.3 2s-.3-.9-1.3-2-2-2-2.3-2 .3.9 1.3 2m142.4 6.7-3.4 3.8 3.8-3.4c2-1.9 3.7-3.6 3.7-3.8 0-.8-.8 0-4.1 3.4M147 331c1.1 1.6 2.6 3.3 3.2 3.6.7.4-.1-.9-1.6-2.9-3.4-4.4-4.6-5-1.6-.7m204.4.7c-1.5 2-2.3 3.3-1.6 2.9 1.3-.8 5.6-6.6 4.9-6.6-.3 0-1.7 1.7-3.3 3.7m-166-.8c1.6 2.5 24.6 17.3 24.6 15.8 0-.3-2.6-2-5.7-3.7-3.2-1.8-8.9-5.5-12.7-8.2-3.7-2.8-6.5-4.5-6.2-3.9m121.6 5c-1.9 1.5-6.1 4.3-9.2 6.1-6.7 3.7-7.8 5-1.5 1.9 4.7-2.4 15.7-9.7 15.7-10.4 0-1.2-1.8-.3-5 2.4M111.6 337c2.2 4.6 12.6 20.2 13.1 19.7.2-.3-2.4-4.7-5.9-9.9s-6.9-10.3-7.6-11.4c-.7-1-.5-.3.4 1.6m275.8.2c-.9 1.8-4.1 6.8-7.1 11.2-2.9 4.3-5.2 8-5 8.3.2.2 2.9-3.4 5.9-7.9 5.7-8.6 9.2-14.8 8.4-14.8-.3 0-1.3 1.5-2.2 3.2M153 338.4c0 .2.8 1 1.8 1.7 1.5 1.3 1.6 1.2.3-.4s-2.1-2.1-2.1-1.3m191.9 1.3c-1.3 1.6-1.2 1.7.4.4s2.1-2.1 1.3-2.1c-.2 0-1 .8-1.7 1.7m-176.4 14.9c9.9 8.4 30.4 20.5 34.4 20.4.9-.1-1.1-1.2-4.4-2.6-8.5-3.7-20.6-11-26.4-16.1-2.7-2.3-5.3-4.3-5.8-4.3-.4.1.6 1.2 2.2 2.6M270 353c-1.1.8-.7.9 1.5.4 3.7-.8 4.5-1.4 1.9-1.4-1 0-2.6.5-3.4 1m57.1 4c-7.3 5.9-16.2 11.2-25.1 15.1-3.6 1.6-5.8 2.8-4.9 2.9 4 .1 24.5-12.1 34.4-20.4 5.5-4.6 1.9-2.7-4.4 2.4m-89.8-2.3c.9.2 2.3.2 3 0 .6-.3-.1-.5-1.8-.5-1.6 0-2.2.2-1.2.5m23 0c.9.2 2.5.2 3.5 0 .9-.3.1-.5-1.8-.5s-2.7.2-1.7.5m-14 1c.9.2 2.3.2 3 0 .6-.3-.1-.5-1.8-.5-1.6 0-2.2.2-1.2.5m6 0c.9.2 2.3.2 3 0 .6-.3-.1-.5-1.8-.5-1.6 0-2.2.2-1.2.5M127 360.4c0 .2.8 1 1.8 1.7 1.5 1.3 1.6 1.2.3-.4s-2.1-2.1-2.1-1.3m10 11.1c1.3 1.4 2.6 2.5 2.8 2.5.3 0-.5-1.1-1.8-2.5s-2.6-2.5-2.8-2.5c-.3 0 .5 1.1 1.8 2.5m224.4.7-2.9 3.3 3.3-2.9c3-2.8 3.7-3.6 2.9-3.6-.2 0-1.6 1.5-3.3 3.2m-214.9 7.2c4.9 4.6 18.7 14.6 20 14.6.4 0-2.8-2.5-7.1-5.6-4.4-3.1-10.1-7.4-12.9-9.6l-5-4z"/><path d="M352.5 379.4c-2.8 2.5-8.4 6.7-12.5 9.5-4 2.8-7 5.1-6.6 5.1 2.1 0 26.6-18.8 24.6-18.9-.3 0-2.8 1.9-5.5 4.3m-86.7 3.3c.7.3 1.6.2 1.9-.1.4-.3-.2-.6-1.3-.5-1.1 0-1.4.3-.6.6m-20.5 1c.9.2 2.3.2 3 0 .6-.3-.1-.5-1.8-.5-1.6 0-2.2.2-1.2.5m6.5 0c.7.3 1.6.2 1.9-.1.4-.3-.2-.6-1.3-.5-1.1 0-1.4.3-.6.6M194 407.8c.8.5 2.6 1.3 4 1.6 1.7.5 2 .4 1-.2-.8-.5-2.6-1.3-4-1.6-1.7-.5-2-.4-1 .2m107 1.2c-1.8 1.2-.2 1.2 2.5 0 1.3-.6 1.5-.9.5-.9-.8 0-2.2.4-3 .9m-98.5 2c1.1.5 2.7.9 3.5.9.9 0 .8-.4-.5-.9-1.1-.5-2.7-.9-3.5-.9-.9 0-.8.4.5.9m91.3.7c.7.3 1.6.2 1.9-.1.4-.3-.2-.6-1.3-.5-1.1 0-1.4.3-.6.6m-85 1c.7.3 1.6.2 1.9-.1.4-.3-.2-.6-1.3-.5-1.1 0-1.4.3-.6.6m13.5 3c.9.2 2.3.2 3 0 .6-.3-.1-.5-1.8-.5-1.6 0-2.2.2-1.2.5m6 1c.9.2 2.5.2 3.5 0 .9-.3.1-.5-1.8-.5s-2.7.2-1.7.5m40 0c.9.2 2.5.2 3.5 0 .9-.3.1-.5-1.8-.5s-2.7.2-1.7.5m-112.4 54-2.4 2.8 2.8-2.4c1.5-1.4 2.7-2.6 2.7-2.8 0-.8-.8-.1-3.1 2.4m187.1-.2c1.3 1.4 2.6 2.5 2.8 2.5.3 0-.5-1.1-1.8-2.5s-2.6-2.5-2.8-2.5c-.3 0 .5 1.1 1.8 2.5m-191.9 12.1c0 1.1.3 1.4.6.6.3-.7.2-1.6-.1-1.9-.3-.4-.6.2-.5 1.3m197 0c0 1.1.3 1.4.6.6.3-.7.2-1.6-.1-1.9-.3-.4-.6.2-.5 1.3M156.5 495c1 1.1 2 2 2.3 2s-.3-.9-1.3-2-2-2-2.3-2 .3.9 1.3 2m185.9.2-1.9 2.3 2.3-1.9c1.2-1.1 2.2-2.1 2.2-2.3 0-.8-.8-.2-2.6 1.9m-6.6 3.5c.7.3 1.6.2 1.9-.1.4-.3-.2-.6-1.3-.5-1.1 0-1.4.3-.6.6"/></g><g stroke-width="0"><path d="M235 2c-2.5.4-8.6 2.1-13.7 3.8-33.5 11.3-55.5 34.6-65 68.8l-2.8 9.9V178c0 93.3 0 93.5 2.2 102.2 3.1 12.1 11.9 30 19.5 39.4 13 16.2 40.1 31.8 58.9 34 3 .4 7.9.9 10.9 1.3 3 .3 8 .3 11-.1s7.3-.9 9.5-1.2c14.3-1.8 30.4-8.7 41.5-17.8 1.9-1.5 3.9-2.8 4.5-2.8 1.3 0 11.9-10.8 16.4-16.7 3.6-4.8 10.1-17.6 13.8-27.2 5-13.4 5.3-18.6 5.3-112.6 0-83.9-.1-87.3-2-95.5-5.3-21.9-13.3-37.2-26.1-50.1-15.7-15.6-26.1-21.3-52.4-28.6-3.2-.9-26.6-1.1-31.5-.3"/><path d="M100.2 244.1c-6.9 3.5-8.6 6.9-9.1 17.4-.2 4.9.2 11.2.8 14 .5 2.7 1.3 7.4 1.6 10.3.3 3 .8 5.8 1.1 6.3s.7 2 1 3.3c.8 4.3 6.3 20.5 9.4 27.6 3.2 7.3 10.9 20.4 16.6 28.1 1.9 2.6 3.4 5.1 3.4 5.7 0 2.2 18.9 20.2 29 27.6 5.8 4.3 11.4 8.5 12.4 9.3 7.3 5.9 40.9 19.3 52.1 20.8 1.1.1 4.8.6 8.3 1l6.2.8V465h-32.2c-19.5 0-33.8.4-36.1 1.1-16.1 4.5-16.9 26.6-1.1 32.1 4.5 1.6 12.1 1.7 86.4 1.7 73.4-.1 82-.2 86.4-1.7 15.8-5.4 15.1-27.6-1.1-32.1-2.3-.7-16.6-1.1-36-1.1H267v-49l3.8-.1c5.8-.2 10.1-.8 14.6-2.1 2.3-.6 4.3-1.2 4.6-1.3 8.4-1.5 38.6-14.3 42.1-17.7.8-.8 3.7-2.9 6.4-4.8 13.4-9 34.2-27.9 36.4-33 .3-.8 3.3-5.6 6.5-10.5 3.3-5 7-10.6 8.2-12.5 4.3-6.6 12.6-27.9 14-36 .3-1.4.9-3.6 1.4-5s1.2-4.1 1.4-6c.3-1.9 1-6.9 1.6-11 1.7-10.4.7-23.2-2-26.9-5.1-7.2-16.5-9-23.5-3.7-5.2 4-6.2 6.8-6.9 19.6-.9 15-2 21.2-6 32.9-6.5 19-13.2 30-28.1 46.1-16.4 17.7-30.6 26.8-52 33.4-13.1 4-14.6 4.3-29.5 5.6-17.8 1.6-32.6-.3-52.5-6.7-19.6-6.2-33-15.1-49-32.3-14.8-16-22.1-27.9-28.3-46.6-3.7-11-4.9-17.5-5.8-31.9-.7-12.9-1.9-16.3-6.8-20-5-3.8-11.6-4.4-17.4-1.4"/></g><path fill="#404040" fill-opacity=".2" d="M151.1 93.6c0 1.1.3 1.4.6.6.3-.7.2-1.6-.1-1.9-.3-.4-.6.2-.5 1.3m197 0c0 1.1.3 1.4.6.6.3-.7.2-1.6-.1-1.9-.3-.4-.6.2-.5 1.3m-197 169c0 1.1.3 1.4.6.6.3-.7.2-1.6-.1-1.9-.3-.4-.6.2-.5 1.3m197 0c0 1.1.3 1.4.6.6.3-.7.2-1.6-.1-1.9-.3-.4-.6.2-.5 1.3"/><path fill="#404040" fill-opacity=".4" d="M106.8 240.7c.6.2 1.8.2 2.5 0 .6-.3.1-.5-1.3-.5s-1.9.2-1.2.5"/><path fill="#404040" fill-opacity=".3" d="M151.5 178c0 45.9.1 64.7.2 41.8.2-23 .2-60.6 0-83.5-.1-23-.2-4.2-.2 41.7"/></svg>